# MagicaVoxel @ ephtracy

# material
mtllib fireball.mtl
usemtl palette

# normals
vn -1 0 0
vn 1 0 0
vn 0 0 1
vn 0 0 -1
vn 0 -1 0
vn 0 1 0

# texcoords
vt 0.115234 0.5
vt 0.158203 0.5
vt 0.845703 0.5

# verts
v -2 1 4.5
v -2 1 1.5
v -2 1 0.5
v -2 2 3.5
v -2 2 1.5
v -2 2 0.5
v -2 3 4.5
v -2 3 3.5
v -2 3 1.5
v -1 0 4.5
v -1 0 3.5
v -1 0 1.5
v -1 1 5.5
v -1 1 4.5
v -1 1 3.5
v -1 1 1.5
v -1 1 0.5
v -1 1 -1.5
v -1 1 -2.5
v -1 1 -3.5
v -1 2 1.5
v -1 2 0.5
v -1 2 -0.5
v -1 2 -1.5
v -1 2 -2.5
v -1 2 -3.5
v -1 3 5.5
v -1 3 4.5
v -1 3 3.5
v -1 3 2.5
v -1 3 1.5
v -1 3 0.5
v -1 3 -0.5
v -1 3 -1.5
v -1 3 -2.5
v -1 4 4.5
v -1 4 2.5
v -1 4 0.5
v 0 1 2.5
v 0 1 1.5
v 0 1 -4.5
v 0 1 -5.5
v 0 2 2.5
v 0 2 1.5
v 0 2 -0.5
v 0 2 -1.5
v 0 2 -4.5
v 0 2 -5.5
v 0 3 2.5
v 0 3 1.5
v 0 3 -0.5
v 0 3 -1.5
v 1 1 4.5
v 1 1 3.5
v 1 1 2.5
v 1 2 3.5
v 1 2 2.5
v 1 3 4.5
v 1 3 3.5
v 1 3 2.5
v -1 1 4.5
v -1 1 3.5
v -1 1 1.5
v -1 2 3.5
v -1 2 1.5
v -1 3 4.5
v -1 3 3.5
v -1 3 2.5
v -1 3 1.5
v 0 0 2.5
v 0 0 1.5
v 0 1 2.5
v 0 1 1.5
v 0 1 -0.5
v 0 1 -1.5
v 0 1 -2.5
v 0 1 -3.5
v 0 2 -0.5
v 0 2 -1.5
v 0 2 -2.5
v 0 2 -3.5
v 0 3 2.5
v 0 3 1.5
v 0 3 0.5
v 0 3 -1.5
v 0 3 -2.5
v 0 4 2.5
v 0 4 0.5
v 1 0 4.5
v 1 0 3.5
v 1 0 2.5
v 1 1 5.5
v 1 1 4.5
v 1 1 3.5
v 1 1 2.5
v 1 1 0.5
v 1 1 -0.5
v 1 1 -4.5
v 1 1 -5.5
v 1 2 2.5
v 1 2 1.5
v 1 2 0.5
v 1 2 -0.5
v 1 2 -1.5
v 1 2 -4.5
v 1 2 -5.5
v 1 3 5.5
v 1 3 4.5
v 1 3 3.5
v 1 3 2.5
v 1 3 1.5
v 1 3 -0.5
v 1 3 -1.5
v 1 4 4.5
v 1 4 3.5
v 1 4 2.5
v 2 1 4.5
v 2 1 3.5
v 2 1 2.5
v 2 2 3.5
v 2 2 2.5
v 2 2 1.5
v 2 3 4.5
v 2 3 1.5
v -1 1 5.5
v -1 3 5.5
v 1 1 5.5
v 1 3 5.5
v -2 1 4.5
v -2 3 4.5
v -1 0 4.5
v -1 1 4.5
v -1 3 4.5
v -1 4 4.5
v 1 0 4.5
v 1 1 4.5
v 1 3 4.5
v 1 4 4.5
v 2 1 4.5
v 2 3 4.5
v 0 1 2.5
v 0 2 2.5
v 0 3 2.5
v 1 1 2.5
v 1 2 2.5
v 1 3 2.5
v -1 1 1.5
v -1 2 1.5
v -1 3 1.5
v 0 1 1.5
v 0 2 1.5
v 0 3 1.5
v -1 2 -1.5
v -1 3 -1.5
v 0 2 -1.5
v 0 3 -1.5
v -1 1 -2.5
v -1 2 -2.5
v 0 1 -2.5
v 0 2 -2.5
v 0 1 -4.5
v 0 2 -4.5
v 1 1 -4.5
v 1 2 -4.5
v -1 1 4.5
v -1 3 4.5
v 1 1 4.5
v 1 3 4.5
v 0 0 2.5
v 0 1 2.5
v 0 3 2.5
v 0 4 2.5
v 1 0 2.5
v 1 1 2.5
v 1 2 2.5
v 1 3 2.5
v 1 4 2.5
v 2 1 2.5
v 2 2 2.5
v -2 2 1.5
v -2 3 1.5
v -1 0 1.5
v -1 1 1.5
v -1 2 1.5
v -1 3 1.5
v 0 0 1.5
v 0 1 1.5
v 1 2 1.5
v 1 3 1.5
v 2 2 1.5
v 2 3 1.5
v -2 1 0.5
v -2 2 0.5
v -1 1 0.5
v -1 2 0.5
v -1 3 0.5
v -1 4 0.5
v 0 3 0.5
v 0 4 0.5
v -1 2 -0.5
v -1 3 -0.5
v 0 1 -0.5
v 0 2 -0.5
v 0 3 -0.5
v 1 1 -0.5
v 1 2 -0.5
v -1 1 -1.5
v -1 2 -1.5
v 0 1 -1.5
v 0 2 -1.5
v 0 3 -1.5
v 1 2 -1.5
v 1 3 -1.5
v -1 2 -2.5
v -1 3 -2.5
v 0 2 -2.5
v 0 3 -2.5
v -1 1 -3.5
v -1 2 -3.5
v 0 1 -3.5
v 0 2 -3.5
v 0 1 -5.5
v 0 2 -5.5
v 1 1 -5.5
v 1 2 -5.5
v -1 0 4.5
v 1 0 4.5
v -1 0 3.5
v 1 0 3.5
v 0 0 2.5
v 1 0 2.5
v -1 0 1.5
v 0 0 1.5
v -1 1 5.5
v 1 1 5.5
v -2 1 4.5
v -1 1 4.5
v 1 1 4.5
v 2 1 4.5
v -1 1 3.5
v 1 1 3.5
v 2 1 3.5
v 0 1 2.5
v 1 1 2.5
v 2 1 2.5
v -2 1 1.5
v -1 1 1.5
v 0 1 1.5
v -2 1 0.5
v -1 1 0.5
v 1 1 0.5
v 0 1 -0.5
v 1 1 -0.5
v -1 1 -1.5
v 0 1 -1.5
v -1 1 -2.5
v 0 1 -2.5
v -1 1 -3.5
v 0 1 -3.5
v 0 1 -4.5
v 1 1 -4.5
v 0 1 -5.5
v 1 1 -5.5
v 1 2 2.5
v 2 2 2.5
v 1 2 1.5
v 2 2 1.5
v 0 2 -0.5
v 1 2 -0.5
v -1 2 -1.5
v 0 2 -1.5
v 1 2 -1.5
v -1 2 -2.5
v 0 2 -2.5
v -1 3 4.5
v 1 3 4.5
v -1 3 3.5
v 0 3 3.5
v 1 3 3.5
v -1 3 2.5
v 0 3 2.5
v 1 3 2.5
v -1 3 1.5
v 0 3 1.5
v -1 1 4.5
v 1 1 4.5
v -1 1 3.5
v 1 1 3.5
v 0 1 2.5
v 1 1 2.5
v -1 1 1.5
v 0 1 1.5
v -2 2 1.5
v -1 2 1.5
v -2 2 0.5
v -1 2 0.5
v -1 2 -0.5
v 0 2 -0.5
v -1 2 -1.5
v 0 2 -1.5
v -1 2 -2.5
v 0 2 -2.5
v -1 2 -3.5
v 0 2 -3.5
v 0 2 -4.5
v 1 2 -4.5
v 0 2 -5.5
v 1 2 -5.5
v -1 3 5.5
v 1 3 5.5
v -2 3 4.5
v -1 3 4.5
v 1 3 4.5
v 2 3 4.5
v -2 3 3.5
v -1 3 3.5
v 1 3 3.5
v -1 3 2.5
v 0 3 2.5
v 1 3 2.5
v -2 3 1.5
v -1 3 1.5
v 0 3 1.5
v 1 3 1.5
v 2 3 1.5
v -1 3 0.5
v 0 3 0.5
v -1 3 -0.5
v 0 3 -0.5
v 1 3 -0.5
v -1 3 -1.5
v 0 3 -1.5
v 1 3 -1.5
v -1 3 -2.5
v 0 3 -2.5
v -1 4 4.5
v 1 4 4.5
v 0 4 3.5
v 1 4 3.5
v -1 4 2.5
v 0 4 2.5
v 1 4 2.5
v -1 4 0.5
v 0 4 0.5

# faces
f 4/2/1 2/2/1 1/2/1
f 5/3/1 3/3/1 2/3/1
f 5/2/1 2/2/1 4/2/1
f 6/3/1 3/3/1 5/3/1
f 7/2/1 4/2/1 1/2/1
f 8/1/1 5/1/1 4/1/1
f 8/2/1 4/2/1 7/2/1
f 9/1/1 5/1/1 8/1/1
f 14/2/1 11/2/1 10/2/1
f 15/1/1 12/1/1 11/1/1
f 15/2/1 11/2/1 14/2/1
f 16/1/1 12/1/1 15/1/1
f 22/3/1 18/3/1 17/3/1
f 23/3/1 18/3/1 22/3/1
f 24/3/1 18/3/1 23/3/1
f 25/3/1 20/3/1 19/3/1
f 26/3/1 20/3/1 25/3/1
f 27/2/1 14/2/1 13/2/1
f 28/2/1 14/2/1 27/2/1
f 31/1/1 22/1/1 21/1/1
f 32/3/1 23/3/1 22/3/1
f 32/1/1 22/1/1 31/1/1
f 33/3/1 23/3/1 32/3/1
f 34/3/1 25/3/1 24/3/1
f 35/3/1 25/3/1 34/3/1
f 36/2/1 30/2/1 29/2/1
f 36/2/1 29/2/1 28/2/1
f 37/1/1 31/1/1 30/1/1
f 37/2/1 30/2/1 36/2/1
f 37/1/1 32/1/1 31/1/1
f 38/1/1 32/1/1 37/1/1
f 43/1/1 40/1/1 39/1/1
f 44/1/1 40/1/1 43/1/1
f 47/3/1 42/3/1 41/3/1
f 48/3/1 42/3/1 47/3/1
f 49/2/1 44/2/1 43/2/1
f 50/2/1 44/2/1 49/2/1
f 51/3/1 46/3/1 45/3/1
f 52/3/1 46/3/1 51/3/1
f 56/2/1 54/2/1 53/2/1
f 56/1/1 55/1/1 54/1/1
f 57/1/1 55/1/1 56/1/1
f 58/2/1 56/2/1 53/2/1
f 58/2/1 57/2/1 56/2/1
f 59/2/1 57/2/1 58/2/1
f 60/2/1 57/2/1 59/2/1
f 61/2/2 62/2/2 64/2/2
f 62/2/2 63/2/2 64/2/2
f 64/2/2 63/2/2 65/2/2
f 61/2/2 64/2/2 66/2/2
f 64/1/2 65/1/2 67/1/2
f 66/2/2 64/2/2 67/2/2
f 67/1/2 65/1/2 68/1/2
f 68/1/2 65/1/2 69/1/2
f 70/1/2 71/1/2 72/1/2
f 72/1/2 71/1/2 73/1/2
f 74/3/2 75/3/2 78/3/2
f 78/3/2 75/3/2 79/3/2
f 76/3/2 77/3/2 80/3/2
f 80/3/2 77/3/2 81/3/2
f 79/3/2 80/3/2 85/3/2
f 85/3/2 80/3/2 86/3/2
f 83/1/2 84/1/2 87/1/2
f 82/1/2 83/1/2 87/1/2
f 87/1/2 84/1/2 88/1/2
f 89/2/2 90/2/2 93/2/2
f 90/1/2 91/1/2 94/1/2
f 93/2/2 90/2/2 94/2/2
f 94/1/2 91/1/2 95/1/2
f 95/1/2 96/1/2 100/1/2
f 100/1/2 96/1/2 101/1/2
f 96/3/2 97/3/2 102/3/2
f 101/1/2 96/1/2 102/1/2
f 102/3/2 97/3/2 103/3/2
f 98/3/2 99/3/2 105/3/2
f 105/3/2 99/3/2 106/3/2
f 92/2/2 93/2/2 107/2/2
f 107/2/2 93/2/2 108/2/2
f 101/1/2 102/1/2 111/1/2
f 102/1/2 103/1/2 111/1/2
f 103/3/2 104/3/2 112/3/2
f 111/1/2 103/1/2 112/1/2
f 112/3/2 104/3/2 113/3/2
f 108/2/2 109/2/2 114/2/2
f 109/1/2 110/1/2 115/1/2
f 114/2/2 109/2/2 115/2/2
f 115/1/2 110/1/2 116/1/2
f 117/2/2 118/2/2 120/2/2
f 118/1/2 119/1/2 120/1/2
f 120/1/2 119/1/2 121/1/2
f 117/2/2 120/2/2 123/2/2
f 121/2/2 122/2/2 123/2/2
f 120/2/2 121/2/2 123/2/2
f 123/2/2 122/2/2 124/2/2
f 127/2/3 126/2/3 125/2/3
f 128/2/3 126/2/3 127/2/3
f 132/2/3 130/2/3 129/2/3
f 133/2/3 130/2/3 132/2/3
f 135/2/3 132/2/3 131/2/3
f 136/2/3 132/2/3 135/2/3
f 137/2/3 134/2/3 133/2/3
f 138/2/3 134/2/3 137/2/3
f 139/2/3 137/2/3 136/2/3
f 140/2/3 137/2/3 139/2/3
f 144/1/3 142/1/3 141/1/3
f 145/2/3 143/2/3 142/2/3
f 145/1/3 142/1/3 144/1/3
f 146/2/3 143/2/3 145/2/3
f 150/1/3 148/1/3 147/1/3
f 150/1/3 149/1/3 148/1/3
f 151/1/3 149/1/3 150/1/3
f 152/1/3 149/1/3 151/1/3
f 155/3/3 154/3/3 153/3/3
f 156/3/3 154/3/3 155/3/3
f 159/3/3 158/3/3 157/3/3
f 160/3/3 158/3/3 159/3/3
f 163/3/3 162/3/3 161/3/3
f 164/3/3 162/3/3 163/3/3
f 165/2/4 166/2/4 167/2/4
f 167/2/4 166/2/4 168/2/4
f 169/1/4 170/1/4 173/1/4
f 173/1/4 170/1/4 174/1/4
f 171/1/4 172/1/4 176/1/4
f 176/1/4 172/1/4 177/1/4
f 174/1/4 175/1/4 178/1/4
f 178/1/4 175/1/4 179/1/4
f 180/1/4 181/1/4 184/1/4
f 184/1/4 181/1/4 185/1/4
f 182/1/4 183/1/4 186/1/4
f 186/1/4 183/1/4 187/1/4
f 188/2/4 189/2/4 190/2/4
f 190/2/4 189/2/4 191/2/4
f 192/3/4 193/3/4 194/3/4
f 194/3/4 193/3/4 195/3/4
f 196/1/4 197/1/4 198/1/4
f 198/1/4 197/1/4 199/1/4
f 200/3/4 201/3/4 203/3/4
f 203/3/4 201/3/4 204/3/4
f 202/3/4 203/3/4 205/3/4
f 205/3/4 203/3/4 206/3/4
f 207/3/4 208/3/4 209/3/4
f 209/3/4 208/3/4 210/3/4
f 210/3/4 211/3/4 212/3/4
f 212/3/4 211/3/4 213/3/4
f 214/3/4 215/3/4 216/3/4
f 216/3/4 215/3/4 217/3/4
f 218/3/4 219/3/4 220/3/4
f 220/3/4 219/3/4 221/3/4
f 222/3/4 223/3/4 224/3/4
f 224/3/4 223/3/4 225/3/4
f 228/2/5 227/2/5 226/2/5
f 229/2/5 227/2/5 228/2/5
f 230/1/5 229/1/5 228/1/5
f 231/1/5 229/1/5 230/1/5
f 232/1/5 230/1/5 228/1/5
f 233/1/5 230/1/5 232/1/5
f 237/2/5 235/2/5 234/2/5
f 238/2/5 235/2/5 237/2/5
f 240/2/5 237/2/5 236/2/5
f 241/2/5 239/2/5 238/2/5
f 242/2/5 239/2/5 241/2/5
f 244/1/5 242/1/5 241/1/5
f 245/1/5 242/1/5 244/1/5
f 246/2/5 240/2/5 236/2/5
f 247/2/5 240/2/5 246/2/5
f 248/1/5 244/1/5 243/1/5
f 249/3/5 247/3/5 246/3/5
f 250/1/5 248/1/5 247/1/5
f 250/3/5 247/3/5 249/3/5
f 251/1/5 244/1/5 248/1/5
f 251/1/5 248/1/5 250/1/5
f 252/3/5 251/3/5 250/3/5
f 253/3/5 251/3/5 252/3/5
f 254/3/5 252/3/5 250/3/5
f 255/3/5 252/3/5 254/3/5
f 258/3/5 257/3/5 256/3/5
f 259/3/5 257/3/5 258/3/5
f 262/3/5 261/3/5 260/3/5
f 263/3/5 261/3/5 262/3/5
f 266/2/5 265/2/5 264/2/5
f 267/2/5 265/2/5 266/2/5
f 271/3/5 269/3/5 268/3/5
f 272/3/5 269/3/5 271/3/5
f 273/3/5 271/3/5 270/3/5
f 274/3/5 271/3/5 273/3/5
f 277/2/5 276/2/5 275/2/5
f 278/2/5 276/2/5 277/2/5
f 279/2/5 276/2/5 278/2/5
f 280/2/5 278/2/5 277/2/5
f 281/1/5 279/1/5 278/1/5
f 281/2/5 278/2/5 280/2/5
f 282/1/5 279/1/5 281/1/5
f 283/1/5 281/1/5 280/1/5
f 284/1/5 281/1/5 283/1/5
f 285/2/6 286/2/6 287/2/6
f 287/2/6 286/2/6 288/2/6
f 287/1/6 288/1/6 289/1/6
f 289/1/6 288/1/6 290/1/6
f 287/1/6 289/1/6 291/1/6
f 291/1/6 289/1/6 292/1/6
f 293/3/6 294/3/6 295/3/6
f 295/3/6 294/3/6 296/3/6
f 297/3/6 298/3/6 299/3/6
f 299/3/6 298/3/6 300/3/6
f 301/3/6 302/3/6 303/3/6
f 303/3/6 302/3/6 304/3/6
f 305/3/6 306/3/6 307/3/6
f 307/3/6 306/3/6 308/3/6
f 309/2/6 310/2/6 312/2/6
f 312/2/6 310/2/6 313/2/6
f 311/2/6 312/2/6 315/2/6
f 315/2/6 312/2/6 316/2/6
f 313/2/6 314/2/6 317/2/6
f 315/1/6 316/1/6 318/1/6
f 317/2/6 314/2/6 320/2/6
f 315/1/6 318/1/6 321/1/6
f 321/1/6 318/1/6 322/1/6
f 319/2/6 320/2/6 323/2/6
f 320/2/6 314/2/6 324/2/6
f 323/2/6 320/2/6 324/2/6
f 324/2/6 314/2/6 325/2/6
f 323/1/6 324/1/6 327/1/6
f 326/3/6 327/3/6 328/3/6
f 327/1/6 324/1/6 329/1/6
f 328/3/6 327/3/6 329/3/6
f 329/1/6 324/1/6 330/1/6
f 329/3/6 330/3/6 332/3/6
f 332/3/6 330/3/6 333/3/6
f 331/3/6 332/3/6 334/3/6
f 334/3/6 332/3/6 335/3/6
f 336/2/6 337/2/6 338/2/6
f 338/2/6 337/2/6 339/2/6
f 336/2/6 338/2/6 340/2/6
f 338/1/6 339/1/6 341/1/6
f 340/2/6 338/2/6 341/2/6
f 341/1/6 339/1/6 342/1/6
f 340/1/6 341/1/6 343/1/6
f 343/1/6 341/1/6 344/1/6
